<svg id="Layer_1" data-name="Layer 1" xmlns="http://www.w3.org/2000/svg" viewBox="0 0 595.28 841.89"><defs><style>.cls-1{fill:#020202;}.cls-2{fill:#ee2c39;}</style></defs><title>m boy site vector</title><path class="cls-1" d="M438.54,511.32c0,16.41-11.45,28.24-28.24,28.24-16.41,0-28.24-11.76-28.24-28.24,0-16.72,11.75-28.25,28.24-28.25C427.09,483.15,438.54,494.6,438.54,511.32Z"/><polygon class="cls-1" points="263.6 368.05 263.6 368.05 263.6 368.05 263.98 367.06 326.49 539.56 370.3 539.56 294.05 325.61 233.9 325.61 156.74 539.56 201.39 539.56 263.6 368.05"/><path class="cls-2" d="M263.52,463.69A106.79,106.79,0,1,1,370.3,356.9,106.95,106.95,0,0,1,263.52,463.69Zm0-190.37A83.58,83.58,0,1,0,347.1,356.9,83.66,83.66,0,0,0,263.52,273.32Z"/></svg>