<svg id="Layer_1" data-name="Layer 1" xmlns="http://www.w3.org/2000/svg" viewBox="0 0 595.28 841.89"><defs><style>.cls-1,.cls-3{fill:#fff;}.cls-1,.cls-2{stroke:#231f20;stroke-width:5px;}.cls-1,.cls-2,.cls-3{stroke-miterlimit:10;}.cls-2{fill:none;}.cls-3{stroke:#00a651;stroke-width:3px;}.cls-4{fill:#231f20;}</style></defs><title>m boy site vector</title><rect class="cls-1" x="105.4" y="274" width="396.15" height="225"/><rect class="cls-1" x="293.95" y="499" width="19.04" height="34.17"/><rect class="cls-2" x="192.48" y="533.17" width="221.97" height="12.63" rx="5.72"/><path class="cls-1" d="M63.79,333.3l33.55-20.64H305.21a31.21,31.21,0,0,0,31.21-31.21h0a31.21,31.21,0,0,0-31.21-31.21H95a31.21,31.21,0,0,0-31.21,31.21Z"/><line class="cls-3" x1="81.71" y1="272.65" x2="211.83" y2="272.65"/><line class="cls-3" x1="79.38" y1="291.77" x2="290.89" y2="291.77"/><path class="cls-1" d="M531.49,428l-19.65-15.76H365a29.9,29.9,0,0,1-29.9-29.9h0a29.9,29.9,0,0,1,29.9-29.9H501.58a29.9,29.9,0,0,1,29.91,29.9Z"/><line class="cls-3" x1="507.6" y1="367.55" x2="368.83" y2="367.55"/><line class="cls-3" x1="507.6" y1="382.43" x2="415.26" y2="382.43"/><line class="cls-3" x1="507.6" y1="397.31" x2="430.91" y2="397.31"/><line class="cls-2" x1="501.54" y1="480.3" x2="105.39" y2="480.3"/><circle class="cls-4" cx="486.13" cy="288.83" r="2.94"/><circle class="cls-4" cx="486.13" cy="297.23" r="2.94"/><circle class="cls-4" cx="486.13" cy="305.64" r="2.94"/></svg>