<svg id="Layer_1" data-name="Layer 1" xmlns="http://www.w3.org/2000/svg" viewBox="0 0 595.28 841.89"><defs><style>.cls-1,.cls-4{fill:#fff;}.cls-1,.cls-2{stroke:#231f20;stroke-miterlimit:10;stroke-width:7.9px;}.cls-2{fill:none;}.cls-3{fill:#ed2024;}</style></defs><title>m boy site vector</title><rect class="cls-1" x="179.2" y="277.63" width="231.33" height="231.33"/><polyline class="cls-2" points="236.62 297.32 263.26 297.32 263.26 362.62"/><polyline class="cls-2" points="199.47 449.2 199.47 340.48 249 340.48"/><polyline class="cls-2" points="210.72 362.62 244.5 362.62 244.5 419.65 343.28 419.65 343.28 307.08"/><polyline class="cls-2" points="224.23 379.13 224.23 454.17 249 454.17 249 490.19"/><polyline class="cls-2" points="263.26 441.42 343.28 441.42 343.28 465.43 294.87 465.43"/><polyline class="cls-2" points="273.76 457.93 273.76 490.19 339.34 490.19"/><polyline class="cls-2" points="323.01 398.64 323.01 379.13 298.53 379.13 298.53 404.64 263.26 404.64"/><polyline class="cls-2" points="263.26 383.63 282.02 383.63 282.02 297.32 332.02 297.32"/><polyline class="cls-2" points="328.64 312.24 328.64 359.14 301.34 359.14 301.34 325.65"/><polyline class="cls-2" points="363.82 340.48 363.82 412.15 376.58 412.15 376.58 447.74 393.09 447.74 393.09 431.75"/><rect class="cls-2" x="191.31" y="292.17" width="28.71" height="28.71"/><rect class="cls-2" x="191.31" y="465.43" width="28.71" height="28.71"/><rect class="cls-2" x="364.1" y="465.43" width="28.71" height="28.71"/><rect class="cls-2" x="364.1" y="292.17" width="28.71" height="28.71"/><line class="cls-2" x1="393.09" y1="421.81" x2="393.09" y2="343.38"/><polyline class="cls-2" points="146.47 307.08 146.47 254.45 199.84 254.45"/><polyline class="cls-2" points="384.22 254.08 436.85 254.08 436.85 307.46"/><polyline class="cls-2" points="446.46 482.63 446.46 535.26 393.09 535.26"/><polyline class="cls-2" points="199.47 535.65 146.84 535.65 146.84 482.27"/><rect class="cls-3" x="136.71" y="377.39" width="321.86" height="28.99"/><path class="cls-4" d="M453.83,382.13v19.51H141.45V382.13H453.83m9.47-9.48H132v38.46H463.3V372.65Z"/></svg>